<svg xmlns="http://www.w3.org/2000/svg" viewBox="0 0 512 512" width="512" height="512">
<defs><path id="m" fill-rule="evenodd" d="M100 313L466 313L466 367L402 367L412 381L419 395L426 417L427 428L466 429L466 482L428 482L421 510L411 531L390 557L388 557L382 564L366 575L335 589L311 595L286 598L237 598L435 760L299 760L285 747L283 747L259 726L257 726L254 722L242 714L238 709L236 709L212 688L210 688L207 684L195 676L191 671L189 671L165 650L163 650L160 646L148 638L144 633L142 633L139 629L137 629L118 612L116 612L113 608L100 599L100 517L281 517L299 513L312 506L324 495L331 483L100 482L100 428L330 428L325 417L315 407L301 399L281 394L100 394L100 314Z"></path><filter id="glow" x="-60%" y="-60%" width="220%" height="220%"><feGaussianBlur stdDeviation="34"></feGaussianBlur></filter></defs>
<g transform="translate(86.2 -65.9) scale(0.6)"><use href="#m" fill="#9678f0" opacity="0.5" filter="url(#glow)"></use><use href="#m" fill="#b6a4f3"></use></g>
</svg>