<svg xmlns="http://www.w3.org/2000/svg" viewBox="60 266 1793 540" width="598" height="180">
<path fill-rule="evenodd" fill="#b6a4f3" d="M100 313L466 313L466 367L402 367L412 381L419 395L426 417L427 428L466 429L466 482L428 482L421 510L411 531L390 557L388 557L382 564L366 575L335 589L311 595L286 598L237 598L435 760L299 760L285 747L283 747L259 726L257 726L254 722L242 714L238 709L236 709L212 688L210 688L207 684L195 676L191 671L189 671L165 650L163 650L160 646L148 638L144 633L142 633L139 629L137 629L118 612L116 612L113 608L100 599L100 517L281 517L299 513L312 506L324 495L331 483L100 482L100 428L330 428L325 417L315 407L301 399L281 394L100 394L100 314Z"></path>
<path fill-rule="evenodd" fill="#f3f0fb" d="M867 306L957 306L957 760L873 760L873 729L858 743L837 755L820 761L797 766L747 766L724 761L707 755L689 746L669 732L648 712L648 710L639 701L629 683L627 682L616 658L609 633L606 610L606 582L608 565L614 540L622 520L632 502L642 490L642 488L646 485L646 483L665 464L667 464L671 459L676 457L687 448L709 437L730 430L761 425L782 425L800 427L827 434L849 445L859 452L865 459L867 459L867 307ZM1250 306L1340 306L1340 760L1256 760L1256 729L1238 745L1220 755L1203 761L1180 766L1130 766L1110 762L1090 755L1070 745L1055 733L1053 733L1049 728L1047 728L1029 710L1029 708L1017 694L1005 673L997 653L992 634L989 612L989 580L993 554L999 534L1010 510L1021 493L1035 478L1035 476L1054 459L1075 445L1097 435L1117 429L1144 425L1164 425L1183 427L1210 434L1232 445L1241 453L1243 453L1248 459L1250 459L1250 307ZM1385 306L1475 306L1475 462L1485 450L1487 450L1491 445L1500 439L1513 433L1530 428L1552 425L1570 425L1587 427L1610 433L1638 448L1648 458L1650 458L1651 461L1662 472L1677 500L1683 522L1685 540L1685 760L1595 760L1595 563L1593 549L1587 534L1572 517L1559 510L1539 506L1517 508L1498 517L1490 524L1490 526L1482 535L1476 551L1475 760L1385 760L1385 307ZM484 313L574 313L574 403L484 403L484 314ZM1723 313L1813 313L1813 403L1723 403L1723 314ZM485 432L574 432L574 760L484 760L485 433ZM1724 432L1813 432L1813 760L1723 760L1724 433ZM1249 602L1250 591L1247 569L1241 552L1233 538L1219 523L1214 521L1212 518L1204 515L1203 513L1182 507L1163 506L1147 508L1131 513L1130 515L1116 522L1102 535L1093 548L1087 561L1082 584L1082 609L1084 621L1091 641L1097 649L1098 653L1111 667L1124 676L1141 683L1158 686L1189 684L1201 680L1218 670L1230 658L1240 643L1248 619L1249 603ZM699 606L701 620L706 636L714 651L721 658L721 660L732 670L752 681L776 686L793 686L810 683L834 671L842 662L844 662L844 660L849 656L854 646L856 645L863 628L867 606L867 588L864 568L860 556L851 539L836 523L824 515L808 509L788 506L770 507L751 512L736 520L720 534L709 550L703 565L699 587L699 605Z"></path>
</svg>